<svg width="150" height="150" viewBox="0 0 150 150" fill="none" xmlns="http://www.w3.org/2000/svg">
<mask id="mask0_3645_74123" style="mask-type:alpha" maskUnits="userSpaceOnUse" x="12" y="12" width="126" height="126">
<circle cx="75" cy="75" r="62.5" fill="#D3EDFF"/>
</mask>
<g mask="url(#mask0_3645_74123)">
<circle cx="75" cy="75" r="62.5" fill="#D3EDFF"/>
<mask id="mask1_3645_74123" style="mask-type:alpha" maskUnits="userSpaceOnUse" x="23" y="74" width="105" height="68">
<rect x="23.1953" y="74.9531" width="103.95" height="66.2334" rx="4.59954" fill="#F6D789"/>
</mask>
<g mask="url(#mask1_3645_74123)">
<rect x="23.1953" y="74.9531" width="103.95" height="66.2334" rx="4.59954" fill="#F6D789"/>
<path d="M72.2532 117.423C74.2409 118.959 77.0151 118.959 79.0029 117.423L132.077 76.4116C133.465 75.3386 132.707 73.1159 130.952 73.1159H20.304C18.5492 73.1159 17.7905 75.3386 19.179 76.4116L72.2532 117.423Z" fill="#FBAA5F"/>
<path fill-rule="evenodd" clip-rule="evenodd" d="M79.0029 117.423C77.0151 118.959 74.2409 118.959 72.2532 117.423L34.2344 88.0453V74.9531H115.186V89.4635L79.0029 117.423Z" fill="#FCF3DA"/>
<path d="M78.0828 98.7172C76.095 97.1812 73.3208 97.1812 71.3331 98.7172L18.2589 139.729C16.8704 140.802 17.6292 143.025 19.3839 143.025L130.032 143.025C131.787 143.025 132.545 140.802 131.157 139.729L78.0828 98.7172Z" fill="#FBAA5F"/>
</g>
<circle cx="50.789" cy="82.3124" r="3.67963" fill="#FBAA5F"/>
<circle cx="62.7499" cy="82.3124" r="3.67963" fill="#FBAA5F"/>
<circle cx="74.7031" cy="82.3124" r="3.67963" fill="#FBAA5F"/>
<circle cx="86.664" cy="82.3124" r="3.67963" fill="#FBAA5F"/>
<circle cx="98.6249" cy="82.3124" r="3.67963" fill="#FBAA5F"/>
<path d="M34.2344 42.7597C34.2344 41.2356 35.4699 40 36.9941 40H112.427C113.951 40 115.186 41.2356 115.186 42.7597V74.9565H34.2344V42.7597Z" fill="#FCF3DA"/>
</g>
<circle cx="74.9965" cy="30.1215" r="27.6058" fill="#DF4E4D"/>
<path fill-rule="evenodd" clip-rule="evenodd" d="M74.7501 72.2506C74.7505 72.2498 74.7516 72.2498 74.752 72.2506C74.7524 72.2516 74.7539 72.2513 74.7539 72.2503V72.2422C74.7539 72.2419 74.7539 72.2415 74.7541 72.2412L82.2177 54.3284C82.6963 53.1799 81.8524 51.9141 80.6081 51.9141H74.7539H74.7482H68.894C67.6497 51.9141 66.8058 53.1799 67.2844 54.3284L74.748 72.2412C74.7482 72.2415 74.7482 72.2419 74.7482 72.2422V72.2503C74.7482 72.2513 74.7497 72.2516 74.7501 72.2506Z" fill="#DF4E4D"/>
<path d="M75.047 45.5341C78.1019 45.5341 80.5784 42.7825 80.5784 39.3882C80.5784 35.9938 78.1019 33.2422 75.047 33.2422C71.9921 33.2422 69.5156 35.9938 69.5156 39.3882C69.5156 42.7825 71.9921 45.5341 75.047 45.5341Z" fill="white"/>
<path fill-rule="evenodd" clip-rule="evenodd" d="M75.0498 13.5781C75.6503 13.5781 76.1372 14.0998 76.1372 14.7434V15.991C81.6935 16.5954 85.9235 21.6574 85.9234 27.702V33.1044L88.8702 36.2822C89.0737 36.5044 89.1872 36.805 89.1855 37.1179V40.6489C89.1855 41.2989 88.6987 41.8258 88.0981 41.8258H80.4866C80.4866 41.8338 80.4866 41.8417 80.4866 41.8496L69.6123 41.8485L69.613 41.8258H62.0015C61.4009 41.8258 60.9141 41.2989 60.9141 40.6489V37.1179C60.9124 36.805 61.0259 36.5044 61.2294 36.2822L64.1762 33.1044V27.702C64.1761 21.6574 68.4061 16.5954 73.9624 15.991V14.7434C73.9624 14.0998 74.4493 13.5781 75.0498 13.5781Z" fill="white"/>
</svg>
