<svg width="150" height="150" viewBox="0 0 150 150" fill="none" xmlns="http://www.w3.org/2000/svg">
<mask id="mask0_3645_74375" style="mask-type:alpha" maskUnits="userSpaceOnUse" x="12" y="12" width="126" height="126">
<circle cx="75" cy="75" r="62.5" fill="#D3EDFF"/>
</mask>
<g mask="url(#mask0_3645_74375)">
<circle cx="75" cy="75" r="62.5" fill="#D3EDFF"/>
<rect x="39.5" y="45" width="72" height="102" rx="5" fill="#444F62"/>
<rect x="39.5" y="45" width="72" height="102" rx="5" fill="#444F62"/>
<rect x="42.5" y="50" width="66" height="93" rx="3" fill="#F5F7F9"/>
</g>
<rect x="39.5" y="44" width="72" height="66" rx="5" fill="#444F62"/>
<rect x="42.5" y="50" width="66" height="60" rx="3" fill="white"/>
<rect x="29.5" y="79" width="91" height="31" rx="4" fill="#405CBF"/>
<circle cx="49.5" cy="95" r="4" fill="#FBAA5F"/>
<circle cx="62.5" cy="95" r="4" fill="#FBAA5F"/>
<circle cx="75.5" cy="95" r="4" fill="#FBAA5F"/>
<circle cx="88.5" cy="95" r="4" fill="#FBAA5F"/>
<circle cx="101.5" cy="95" r="4" fill="#FBAA5F"/>
<circle cx="74.9965" cy="30.1215" r="27.6058" fill="#5AC571"/>
<path fill-rule="evenodd" clip-rule="evenodd" d="M74.7501 72.2506C74.7505 72.2498 74.7516 72.2498 74.752 72.2506C74.7524 72.2516 74.7539 72.2513 74.7539 72.2503V72.2422C74.7539 72.2419 74.7539 72.2415 74.7541 72.2412L82.2177 54.3284C82.6963 53.1799 81.8524 51.9141 80.6081 51.9141H74.7539H74.7482H68.894C67.6497 51.9141 66.8058 53.1799 67.2844 54.3284L74.748 72.2412C74.7482 72.2415 74.7482 72.2419 74.7482 72.2422V72.2503C74.7482 72.2513 74.7497 72.2516 74.7501 72.2506Z" fill="#5AC571"/>
<g clip-path="url(#clip0_3645_74375)">
<path d="M82.0425 31.6093C81.9826 31.5805 79.7424 30.4774 79.3443 30.3341C79.1818 30.2758 79.0077 30.2188 78.8225 30.2188C78.52 30.2188 78.2659 30.3695 78.068 30.6657C77.8442 30.9983 77.1668 31.7902 76.9574 32.0267C76.9301 32.0579 76.8928 32.0953 76.8704 32.0953C76.8504 32.0953 76.5037 31.9525 76.3987 31.9069C73.9956 30.863 72.1715 28.3527 71.9214 27.9294C71.8857 27.8685 71.8842 27.8409 71.8839 27.8409C71.8927 27.8087 71.9735 27.7277 72.0152 27.6859C72.1372 27.5651 72.2694 27.406 72.3973 27.2521C72.4578 27.1791 72.5185 27.1061 72.5781 27.0373C72.7636 26.8214 72.8462 26.6537 72.942 26.4596L72.9922 26.3587C73.2261 25.8941 73.0263 25.502 72.9618 25.3754C72.9088 25.2694 71.9629 22.9865 71.8623 22.7467C71.6205 22.1679 71.3009 21.8984 70.8568 21.8984C70.8156 21.8984 70.8568 21.8984 70.684 21.9057C70.4736 21.9146 69.3278 22.0655 68.8212 22.3848C68.2839 22.7235 67.375 23.8032 67.375 25.702C67.375 27.411 68.4595 29.0246 68.9251 29.6382C68.9367 29.6537 68.9579 29.6851 68.9888 29.7302C70.7719 32.3344 72.9949 34.2643 75.2484 35.1646C77.4179 36.0311 78.4452 36.1313 79.0292 36.1313H79.0293C79.2748 36.1313 79.4712 36.1121 79.6445 36.095L79.7545 36.0845C80.5039 36.0181 82.1509 35.1647 82.5256 34.1236C82.8207 33.3036 82.8985 32.4076 82.7022 32.0825C82.5677 31.8614 82.3359 31.7502 82.0425 31.6093Z" fill="white"/>
<path d="M74.9419 13.9531C66.6195 13.9531 59.8488 20.673 59.8488 28.9328C59.8488 31.6043 60.5638 34.2194 61.9181 36.5081L59.3258 44.1549C59.2775 44.2974 59.3134 44.4551 59.4189 44.5624C59.495 44.6401 59.5983 44.6821 59.7037 44.6821C59.7441 44.6821 59.7849 44.676 59.8246 44.6633L67.7981 42.1296C69.9801 43.2954 72.4462 43.9107 74.942 43.9107C83.2635 43.9108 90.0336 37.1917 90.0336 28.9328C90.0336 20.673 83.2635 13.9531 74.9419 13.9531ZM74.9419 40.7905C72.5934 40.7905 70.3188 40.1123 68.3635 38.8293C68.2978 38.7861 68.2214 38.7639 68.1446 38.7639C68.104 38.7639 68.0633 38.7701 68.0237 38.7827L64.0294 40.0524L65.3189 36.2483C65.3606 36.1251 65.3397 35.9894 65.2629 35.8844C63.7739 33.8499 62.9868 31.4462 62.9868 28.9328C62.9868 22.3936 68.3498 17.0735 74.9418 17.0735C81.533 17.0735 86.8953 22.3936 86.8953 28.9328C86.8954 35.4712 81.5331 40.7905 74.9419 40.7905Z" fill="white"/>
</g>
<defs>
<clipPath id="clip0_3645_74375">
<rect width="30.7289" height="30.7289" fill="white" transform="translate(59.3047 13.9531)"/>
</clipPath>
</defs>
</svg>
